<svg xmlns="http://www.w3.org/2000/svg" width="193" height="67" viewBox="0 0 193 67">
  <title>Zotero</title>
  <g>
    <path d="M28.38,21.784,8.1,48.423H29.12v4.441H1V49.312L21.276,22.671H2.036V18.232H28.38Z" fill="#a6212c"/>
    <path d="M68.191,35.547A18.889,18.889,0,0,1,66.822,42.8a17.158,17.158,0,0,1-9.62,9.583,19.566,19.566,0,0,1-7.437,1.369A19.362,19.362,0,0,1,42.4,52.382a17.158,17.158,0,0,1-9.62-9.583,18.871,18.871,0,0,1-1.369-7.252A18.889,18.889,0,0,1,32.782,28.3a17.174,17.174,0,0,1,9.62-9.583,19.381,19.381,0,0,1,7.363-1.368A19.585,19.585,0,0,1,57.2,18.712a17.174,17.174,0,0,1,9.62,9.583A18.907,18.907,0,0,1,68.191,35.547Zm-5.328,0a15.572,15.572,0,0,0-.924-5.4,13.019,13.019,0,0,0-2.627-4.366A12.373,12.373,0,0,0,55.2,22.857a14.322,14.322,0,0,0-10.878,0,11.96,11.96,0,0,0-4.07,2.923,13.3,13.3,0,0,0-2.589,4.366,16.22,16.22,0,0,0,0,10.8,13.3,13.3,0,0,0,2.589,4.366,11.946,11.946,0,0,0,4.07,2.923,14.322,14.322,0,0,0,10.878,0,12.358,12.358,0,0,0,4.108-2.923,13.019,13.019,0,0,0,2.627-4.366A15.572,15.572,0,0,0,62.863,35.547Z" fill="#222"/>
    <path d="M92.019,22.671h-9.99V43.1a11.04,11.04,0,0,0,.37,3.145,4.421,4.421,0,0,0,1.036,1.886,3.562,3.562,0,0,0,1.591.926,7.516,7.516,0,0,0,2.035.259,9.648,9.648,0,0,0,2.59-.37,11.9,11.9,0,0,0,2.441-.962l.223,4.514a15.688,15.688,0,0,1-6.586,1.257,12.3,12.3,0,0,1-2.923-.37,6.881,6.881,0,0,1-2.775-1.405,7.727,7.727,0,0,1-2.073-2.812,11.309,11.309,0,0,1-.813-4.663V22.671H69.819V18.232h7.326V8.463h4.884v9.769h9.99Z" fill="#222"/>
    <path d="M99.122,36.879a14.82,14.82,0,0,0,1.257,4.885,12.765,12.765,0,0,0,6.661,6.586,11.945,11.945,0,0,0,4.809.962,12.349,12.349,0,0,0,6.772-1.813,13.562,13.562,0,0,0,4.328-4.181l3.774,3.107a18.735,18.735,0,0,1-6.845,5.624,19.142,19.142,0,0,1-8.029,1.7,18.411,18.411,0,0,1-7.141-1.369,16.7,16.7,0,0,1-5.661-3.81A18.015,18.015,0,0,1,95.31,42.8a18.871,18.871,0,0,1-1.369-7.252A19.356,19.356,0,0,1,95.273,28.3a17.574,17.574,0,0,1,3.7-5.771,17.033,17.033,0,0,1,5.55-3.812,17.236,17.236,0,0,1,6.882-1.368,16.884,16.884,0,0,1,7.03,1.406,15.584,15.584,0,0,1,5.217,3.737,16.024,16.024,0,0,1,3.22,5.475,20.012,20.012,0,0,1,1.109,6.7v2.219Zm23.531-4a11.088,11.088,0,0,0-2.96-8.028q-2.961-3.07-8.288-3.071a11.828,11.828,0,0,0-4.588.924,12.962,12.962,0,0,0-3.885,2.48,12.433,12.433,0,0,0-2.664,3.552,9.158,9.158,0,0,0-1,4.143Z" fill="#222"/>
    <path d="M135.159,29.036q0-2.294-.111-4.662t-.185-6.142h4.81v6.437h.148a10.794,10.794,0,0,1,1.48-2.7,11.594,11.594,0,0,1,2.331-2.331,11.441,11.441,0,0,1,3.182-1.665,12.491,12.491,0,0,1,4.107-.629,13.266,13.266,0,0,1,3.626.444l-.962,4.81a8.216,8.216,0,0,0-2.812-.37,10.054,10.054,0,0,0-4.81,1.072,10.676,10.676,0,0,0-3.33,2.739,11.352,11.352,0,0,0-1.961,3.588,11.89,11.89,0,0,0-.629,3.7V52.864h-4.884Z" fill="#222"/>
    <path d="M190.659,35.547A18.889,18.889,0,0,1,189.29,42.8a17.156,17.156,0,0,1-9.621,9.583,19.564,19.564,0,0,1-7.436,1.369,19.359,19.359,0,0,1-7.363-1.369,17.158,17.158,0,0,1-9.62-9.583,18.852,18.852,0,0,1-1.37-7.252,18.87,18.87,0,0,1,1.37-7.252,17.174,17.174,0,0,1,9.62-9.583,19.377,19.377,0,0,1,7.363-1.368,19.583,19.583,0,0,1,7.436,1.368A17.171,17.171,0,0,1,189.29,28.3,18.907,18.907,0,0,1,190.659,35.547Zm-5.328,0a15.55,15.55,0,0,0-.925-5.4,13,13,0,0,0-2.627-4.366,12.373,12.373,0,0,0-4.108-2.923,14.322,14.322,0,0,0-10.878,0,11.96,11.96,0,0,0-4.07,2.923,13.339,13.339,0,0,0-2.59,4.366,16.236,16.236,0,0,0,0,10.8,13.339,13.339,0,0,0,2.59,4.366,11.946,11.946,0,0,0,4.07,2.923,14.322,14.322,0,0,0,10.878,0,12.358,12.358,0,0,0,4.108-2.923,13,13,0,0,0,2.627-4.366A15.549,15.549,0,0,0,185.331,35.547Z" fill="#222"/>
  </g>
</svg>
